<svg xmlns="http://www.w3.org/2000/svg" width="100" height="106" fill="none"><path fill="#163152" d="M67.979 80.677c-8.664 4.57-48.686 10.334-48.686 10.334s30.12-1.59 48.274-4.173 28.056-24.243 28.056-24.243L6.09 72.332l79.63-3.378s-9.076 7.153-17.741 11.723ZM50.856 6.888c21.318 32.259 1.238 53.785 1.238 53.785 14.029-24.64-1.238-53.785-1.238-53.785ZM46.09 64.383l39.78-4.354S95.493 20.162 43.841 0c0 0 19.982 36.2 2.248 64.383ZM18.468 64.383c14.235-16.493 22.28-47.89 22.28-47.89-3.094 31.595-22.28 47.89-22.28 47.89ZM42.192 4.967S32.29 42.525 13.517 67.96l30.326-3.577-1.65-59.416Z"/><path fill="#163152" d="M38.066 74.319 6.09 76.803l1.032 2.483 30.944-4.967ZM34.353 81.87l-24.24 3.955 1.032 2.484 23.208-6.44ZM8.36 81.77l1.031 2.485 34.452-7.452L8.358 81.77ZM11.673 96.314h-.217c-.289 0-.567.075-.833.225a2.1 2.1 0 0 0-.634.562l-2.968 4.401v3.277a.882.882 0 0 0 .283.611c.178.16.4.241.667.241h.184v.16h-4.67v-.16h.2a.938.938 0 0 0 .65-.241.882.882 0 0 0 .284-.611v-3.277l-2.951-4.4a1.666 1.666 0 0 0-.634-.563 1.62 1.62 0 0 0-.834-.225H0v-.16h5.07v.16h-.184c-.211 0-.367.07-.467.209-.089.128-.133.24-.133.337 0 .086.022.166.066.241l2.218 3.695 2.252-3.695a.586.586 0 0 0 .05-.24c0-.097-.05-.21-.15-.338-.09-.14-.24-.209-.45-.209h-.167v-.16h3.568v.16ZM20.889 105.631h.133v.16H16.12v-.16h.133c.222 0 .384-.065.484-.193.1-.129.15-.246.15-.354a.956.956 0 0 0-.067-.337l-.65-1.478h-3.536l-.667 1.494a.871.871 0 0 0-.066.337c0 .108.05.225.15.354.11.118.278.177.5.177h.133v.16H9.35v-.16h.134c.233 0 .467-.07.7-.209.233-.139.422-.348.567-.627l3.452-7.132c.49-1.06.745-1.713.767-1.96h.15l4.47 9.028c.144.311.333.541.566.691.245.139.49.209.734.209Zm-7.971-2.988h2.968l-1.467-3.357-1.501 3.357ZM26.84 106c-1.867-.011-3.334-.455-4.402-1.333-1.067-.889-1.6-2.121-1.6-3.695 0-1.574.527-2.805 1.584-3.694 1.067-.889 2.54-1.333 4.419-1.333 1.467 0 2.718.246 3.752.739v2.553h-.117c-.278-.953-.706-1.633-1.284-2.04-.578-.406-1.306-.61-2.184-.61-1.179 0-2.08.391-2.702 1.173-.623.77-.934 1.83-.934 3.18 0 1.339.306 2.404.917 3.197.634.814 1.496 1.22 2.585 1.22.79 0 1.44-.117 1.951-.353.512-.235.917-.61 1.218-1.124.3-.525.522-1.232.667-2.121h.116l.2 2.426c-.344.546-.872.985-1.584 1.317-.7.332-1.567.498-2.601.498ZM43.41 105.631h.184v.16h-4.586v-.16h.167a.939.939 0 0 0 .65-.241.787.787 0 0 0 .267-.611v-3.469h-4.386v3.469c.011.247.106.45.284.611.178.16.389.241.634.241h.183v.16h-4.603v-.16h.184a.938.938 0 0 0 .65-.241.82.82 0 0 0 .267-.611v-7.614a.77.77 0 0 0-.267-.594.902.902 0 0 0-.65-.257h-.184v-.16h4.603v.16h-.183a.914.914 0 0 0-.634.241.825.825 0 0 0-.284.594v3.518h4.386v-3.502c0-.332-.15-.578-.45-.739a.999.999 0 0 0-.467-.112h-.167v-.16h4.586v.16h-.183a.914.914 0 0 0-.634.241.84.84 0 0 0-.284.61v7.63a.79.79 0 0 0 .45.723c.145.075.3.113.468.113ZM53.8 98.434v-.144c0-.46-.134-.825-.4-1.093-.267-.267-.64-.406-1.118-.417h-1.934v8.015a.826.826 0 0 0 .283.595c.178.16.39.241.634.241h.184v.16h-4.603v-.16h.167a.939.939 0 0 0 .65-.241.787.787 0 0 0 .267-.611v-8h-1.918c-.489.012-.867.15-1.134.419-.267.267-.4.631-.4 1.092v.144h-.167v-2.538c.156.054.411.108.767.161.367.054.695.08.984.08h6.154c.489 0 .889-.032 1.2-.096a4.94 4.94 0 0 0 .55-.145v2.538H53.8ZM64.867 106c-1.868-.011-3.336-.455-4.403-1.333-1.067-.889-1.6-2.121-1.6-3.695 0-1.574.527-2.805 1.583-3.694 1.068-.889 2.54-1.333 4.42-1.333 1.467 0 2.718.246 3.752.739v2.553h-.117c-.278-.953-.706-1.633-1.284-2.04-.578-.406-1.306-.61-2.185-.61-1.178 0-2.079.391-2.701 1.173-.623.77-.934 1.83-.934 3.18 0 1.339.306 2.404.917 3.197.634.814 1.495 1.22 2.585 1.22.79 0 1.44-.117 1.951-.353.511-.235.917-.61 1.217-1.124.3-.525.523-1.232.667-2.121h.117l.2 2.426c-.344.546-.873.985-1.584 1.317-.7.332-1.568.498-2.601.498ZM70.23 105.791v-.16h.2a.879.879 0 0 0 .634-.241.77.77 0 0 0 .267-.595v-7.63a.77.77 0 0 0-.267-.594.882.882 0 0 0-.634-.257h-.2v-.16h4.636v.16h-.2a.935.935 0 0 0-.65.241.787.787 0 0 0-.267.61v7.984h2.001c.69-.011 1.273-.215 1.751-.611.478-.407.828-.974 1.05-1.702h.184l-.65 2.955H70.23ZM90.06 96.314h-.234a.774.774 0 0 0-.534.193.62.62 0 0 0-.233.466v5.316c0 1.157-.367 2.067-1.1 2.731-.734.653-1.83.98-3.286.98-1.445 0-2.574-.321-3.385-.964-.8-.642-1.2-1.547-1.2-2.714v-5.333a.6.6 0 0 0-.234-.482.774.774 0 0 0-.534-.193h-.233v-.16h4.385v.16h-.233a.774.774 0 0 0-.534.193.618.618 0 0 0-.216.482v5.22c0 .985.233 1.756.7 2.313.478.557 1.145.835 2.001.835.856 0 1.529-.262 2.018-.787.5-.524.75-1.253.75-2.184v-5.397a.636.636 0 0 0-.233-.482.774.774 0 0 0-.534-.193h-.217v-.16h3.085v.16ZM99.216 98.547c0 .396-.089.744-.267 1.044-.344.578-.867.894-1.567.948.745.053 1.367.31 1.868.771.5.449.75 1.028.75 1.734 0 1.382-.862 2.249-2.585 2.603a8.322 8.322 0 0 1-1.6.144h-4.837v-.16h.184a.88.88 0 0 0 .633-.241.842.842 0 0 0 .284-.611v-7.614c-.011-.385-.2-.648-.567-.787a.964.964 0 0 0-.35-.064h-.184v-.16h4.47c2.512 0 3.768.797 3.768 2.393ZM97.3 102.9c0-.493-.106-.905-.317-1.237-.39-.643-1.062-.964-2.018-.964h-.034v-.144c.534 0 .968-.15 1.301-.45.334-.3.5-.766.5-1.398 0-1.285-.605-1.927-1.817-1.927h-.467v8.369h.667c.645 0 1.167-.182 1.567-.546.412-.365.618-.932.618-1.703Z"/></svg>