<svg xmlns="http://www.w3.org/2000/svg" width="18" height="16" fill="none"><path fill="#163152" d="M12.478 1.924c-.682 0-1.337.286-1.824.798a2.886 2.886 0 0 0-.779 1.938L9.85 6.174a.61.61 0 0 1-.051.235.574.574 0 0 1-.137.191.504.504 0 0 1-.422.134l-1.4-.204c-1.844-.269-3.61-1.178-5.304-2.69-.537 3.181.511 5.385 3.036 7.086l1.567 1.055c.075.05.137.119.18.2a.608.608 0 0 1-.15.754l-1.428 1.118c.85.057 1.657.016 2.326-.126 4.234-.905 7.049-4.317 7.049-9.946 0-.46-.908-2.057-2.638-2.057Zm-4.397 2.7a4.942 4.942 0 0 1 .777-2.59A4.465 4.465 0 0 1 10.844.337a4.125 4.125 0 0 1 2.53-.238 4.32 4.32 0 0 1 2.231 1.3c.638-.004 1.18.169 2.395-.62-.3 1.577-.449 2.261-1.09 3.202 0 7.345-4.214 10.917-8.491 11.831-2.933.627-7.197-.403-8.419-1.77.623-.051 3.153-.343 4.616-1.49C3.379 11.68-1.547 8.576 1.69.229c1.519 1.9 3.06 3.194 4.621 3.88 1.04.457 1.294.447 1.77.517Z"/></svg>